{
.appVersion = "1230";
DisplayStrings = (
"/yod-hb",
"/alef-hb/bet-hb/gimel-hb/dalet-hb/he-hb/vav-hb/zayin-hb/het-hb/tet-hb/yod-hb/finalkaf-hb/kaf-hb/lamed-hb/finalmem-hb/mem-hb/finalnun-hb/nun-hb/samekh-hb/ayin-hb/finalpe-hb/pe-hb/finaltsadi-hb/tsadi-hb/qof-hb/resh-hb/shin-hb/tav-hb",
"/alef-hb"
);
date = "2019-07-18 22:28:03 +0000";
familyName = CalligrapherFont;
fontMaster = (
{
alignmentZones = (
"{500, 15}",
"{0, -40}"
);
ascender = 750;
capHeight = 750;
customParameters = (
{
name = shoulderHeight;
value = "410";
}
);
descender = -250;
guideLines = (
{
angle = 45;
position = "{251, 158}";
},
{
angle = 60;
position = "{290, 302}";
},
{
angle = 60;
position = "{429, 0}";
}
);
id = "4B1D62E6-7BFF-465E-AFDB-BC9AB18DC79E";
xHeight = 500;
}
);
glyphs = (
{
glyphname = "alef-hb";
lastChange = "2019-10-03 20:27:17 +0000";
layers = (
{
backgroundImage = {
crop = "{{0, 0}, {754, 1000}}";
imagePath = "../../../../fontDesign/Calligraphy/Calligraphy in Glyphs/img/img/alef-hb.jpg";
locked = "1";
transform = "{1, 0, 0, 1, -60, -230}";
};
layerId = "4B1D62E6-7BFF-465E-AFDB-BC9AB18DC79E";
paths = (
{
closed = 1;
nodes = (
"287 297 OFFCURVE",
"422 168 OFFCURVE",
"501 -11 CURVE",
"561 92 LINE",
"475 267 OFFCURVE",
"343 391 OFFCURVE",
"157 540 CURVE",
"99 440 LINE"
);
},
{
closed = 1;
nodes = (
"470 398 OFFCURVE",
"464 318 OFFCURVE",
"410 224 CURVE",
"508 303 LINE",
"557 392 OFFCURVE",
"555 475 OFFCURVE",
"516 554 CURVE",
"431 479 LINE"
);
},
{
closed = 1;
nodes = (
"98 198 OFFCURVE",
"114 62 OFFCURVE",
"161 0 CURVE",
"212 109 LINE",
"185 201 OFFCURVE",
"186 293 OFFCURVE",
"244 393 CURVE",
"141 284 LINE"
);
},
{
closed = 1;
nodes = (
"133 0 OFFCURVE",
"190 0 OFFCURVE",
"246 0 CURVE",
"303 109 LINE",
"247 109 OFFCURVE",
"190 109 OFFCURVE",
"134 109 CURVE",
"77 0 LINE"
);
}
);
width = 663;
}
);
unicode = 05D0;
},
{
glyphname = "bet-hb";
lastChange = "2019-10-03 20:27:11 +0000";
layers = (
{
backgroundImage = {
crop = "{{0, 0}, {601, 1000}}";
imagePath = "../../../../fontDesign/Calligraphy/Calligraphy in Glyphs/img/img/bet-hb.jpg";
locked = "1";
transform = "{1, 0, 0, 1, 0, -262}";
};
layerId = "4B1D62E6-7BFF-465E-AFDB-BC9AB18DC79E";
paths = (
{
closed = 1;
nodes = (
"167 568 LINE",
"126 500 LINE",
"145 420 LINE",
"186 488 LINE"
);
},
{
closed = 1;
nodes = (
"284 410 LINE SMOOTH",
"375 410 OFFCURVE",
"388 386 OFFCURVE",
"388 248 CURVE SMOOTH",
"388 12 LINE",
"464 137 LINE",
"464 353 LINE SMOOTH",
"464 454 OFFCURVE",
"426 500 OFFCURVE",
"332 500 CURVE SMOOTH",
"126 500 LINE",
"73 410 LINE"
);
},
{
closed = 1;
nodes = (
"493 0 LINE",
"545 90 LINE",
"107 90 LINE",
"55 0 LINE"
);
}
);
width = 593;
}
);
unicode = 05D1;
},
{
glyphname = "gimel-hb";
lastChange = "2019-10-03 19:14:13 +0000";
layers = (
{
backgroundImage = {
crop = "{{0, 0}, {427, 1000}}";
imagePath = "../../../../fontDesign/Calligraphy/Calligraphy in Glyphs/img/img/gimel-hb.jpg";
locked = "1";
transform = "{1, 0, 0, 1, 0, -233}";
};
layerId = "4B1D62E6-7BFF-465E-AFDB-BC9AB18DC79E";
paths = (
{
closed = 1;
nodes = (
"214 373 OFFCURVE",
"254 336 OFFCURVE",
"269 170 CURVE SMOOTH",
"286 -15 LINE",
"342 82 LINE",
"326 273 LINE SMOOTH",
"313 428 OFFCURVE",
"269 469 OFFCURVE",
"145 542 CURVE",
"92 451 LINE"
);
},
{
closed = 1;
nodes = (
"136 -12 OFFCURVE",
"220 41 OFFCURVE",
"293 202 CURVE",
"299 259 LINE",
"227 142 OFFCURVE",
"166 102 OFFCURVE",
"87 92 CURVE",
"49 -12 LINE"
);
}
);
width = 427;
}
);
unicode = 05D2;
},
{
glyphname = "dalet-hb";
lastChange = "2019-10-03 19:20:14 +0000";
layers = (
{
backgroundImage = {
crop = "{{0, 0}, {618, 1000}}";
imagePath = "../../../../fontDesign/Calligraphy/Calligraphy in Glyphs/img/img/dalet-hb.jpg";
locked = "1";
transform = "{1, 0, 0, 1, 0, -240}";
};
layerId = "4B1D62E6-7BFF-465E-AFDB-BC9AB18DC79E";
paths = (
{
closed = 1;
nodes = (
"167 568 LINE",
"126 500 LINE",
"145 420 LINE",
"186 488 LINE"
);
},
{
closed = 1;
nodes = (
"492 410 LINE",
"563 499 LINE",
"126 500 LINE",
"73 410 LINE"
);
},
{
closed = 1;
nodes = (
"401 -38 LINE",
"477 37 LINE",
"477 568 LINE",
"401 478 LINE"
);
}
);
width = 618;
}
);
unicode = 05D3;
},
{
glyphname = "he-hb";
lastChange = "2019-10-03 20:27:09 +0000";
layers = (
{
backgroundImage = {
crop = "{{0, 0}, {676, 1000}}";
imagePath = "../../../../fontDesign/Calligraphy/Calligraphy in Glyphs/img/img/he-hb.jpg";
locked = "1";
transform = "{1, 0, 0, 1, -30, -262}";
};
layerId = "4B1D62E6-7BFF-465E-AFDB-BC9AB18DC79E";
paths = (
{
closed = 1;
nodes = (
"187 568 LINE",
"146 500 LINE",
"165 420 LINE",
"206 488 LINE"
);
},
{
closed = 1;
nodes = (
"364 410 LINE SMOOTH",
"474 410 OFFCURVE",
"488 386 OFFCURVE",
"488 278 CURVE SMOOTH",
"488 -38 LINE",
"564 38 LINE",
"564 353 LINE SMOOTH",
"564 454 OFFCURVE",
"523 500 OFFCURVE",
"412 500 CURVE SMOOTH",
"146 500 LINE",
"93 410 LINE"
);
},
{
closed = 1;
nodes = (
"122 126 OFFCURVE",
"121 44 OFFCURVE",
"121 -38 CURVE",
"197 37 LINE",
"197 124 OFFCURVE",
"198 211 OFFCURVE",
"205 298 CURVE",
"129 208 LINE"
);
}
);
width = 650;
}
);
unicode = 05D4;
},
{
glyphname = "vav-hb";
lastChange = "2019-10-03 19:18:26 +0000";
layers = (
{
backgroundImage = {
crop = "{{0, 0}, {308, 1000}}";
imagePath = "../../../../fontDesign/Calligraphy/Calligraphy in Glyphs/img/img/vav-hb.jpg";
locked = "1";
transform = "{1, 0, 0, 1, 0, -260}";
};
layerId = "4B1D62E6-7BFF-465E-AFDB-BC9AB18DC79E";
paths = (
{
closed = 1;
nodes = (
"107 413 LINE SMOOTH",
"143 381 OFFCURVE",
"148 364 OFFCURVE",
"148 288 CURVE SMOOTH",
"148 -36 LINE",
"224 40 LINE",
"224 340 LINE SMOOTH",
"224 432 OFFCURVE",
"209 468 OFFCURVE",
"175 496 CURVE SMOOTH",
"105 552 LINE",
"52 461 LINE"
);
}
);
width = 312;
}
);
unicode = 05D5;
},
{
glyphname = "zayin-hb";
lastChange = "2019-10-03 19:58:24 +0000";
layers = (
{
backgroundImage = {
crop = "{{0, 0}, {429, 1000}}";
imagePath = "../../../../fontDesign/Calligraphy/Calligraphy in Glyphs/img/img/zayin-hb.jpg";
locked = "1";
transform = "{1, 0, 0, 1, 0, -230}";
};
layerId = "4B1D62E6-7BFF-465E-AFDB-BC9AB18DC79E";
paths = (
{
closed = 1;
nodes = (
"172 413 OFFCURVE",
"240 366 OFFCURVE",
"301 307 CURVE",
"355 395 LINE",
"292 455 OFFCURVE",
"226 507 OFFCURVE",
"155 551 CURVE",
"100 456 LINE"
);
},
{
closed = 1;
nodes = (
"298 448 OFFCURVE",
"250 456 OFFCURVE",
"206 419 CURVE",
"150 321 LINE",
"193 366 OFFCURVE",
"226 363 OFFCURVE",
"301 307 CURVE",
"355 395 LINE"
);
},
{
closed = 1;
nodes = (
"120 266 OFFCURVE",
"130 222 OFFCURVE",
"156 148 CURVE SMOOTH",
"220 -37 LINE",
"275 58 LINE",
"211 243 LINE SMOOTH",
"197 284 OFFCURVE",
"172 326 OFFCURVE",
"206 419 CURVE",
"151 324 LINE"
);
}
);
width = 430;
}
);
unicode = 05D6;
},
{
glyphname = "het-hb";
lastChange = "2019-10-03 20:27:04 +0000";
layers = (
{
backgroundImage = {
crop = "{{0, 0}, {671, 1000}}";
imagePath = "../../../../fontDesign/Calligraphy/Calligraphy in Glyphs/img/img/het-hb.jpg";
locked = "1";
transform = "{1, 0, 0, 1, -64, -258}";
};
layerId = "4B1D62E6-7BFF-465E-AFDB-BC9AB18DC79E";
paths = (
{
closed = 1;
nodes = (
"174 568 LINE",
"133 500 LINE",
"152 420 LINE",
"193 488 LINE"
);
},
{
closed = 1;
nodes = (
"340 410 LINE SMOOTH",
"450 410 OFFCURVE",
"464 386 OFFCURVE",
"464 278 CURVE SMOOTH",
"464 -38 LINE",
"540 38 LINE",
"540 353 LINE SMOOTH",
"540 454 OFFCURVE",
"499 500 OFFCURVE",
"388 500 CURVE SMOOTH",
"133 500 LINE",
"80 410 LINE"
);
},
{
closed = 1;
nodes = (
"116 311 OFFCURVE",
"129 141 OFFCURVE",
"118 -38 CURVE",
"194 37 LINE",
"205 228 OFFCURVE",
"193 388 OFFCURVE",
"164 519 CURVE",
"80 410 LINE"
);
}
);
width = 630;
}
);
unicode = 05D7;
},
{
glyphname = "tet-hb";
lastChange = "2019-10-03 20:26:55 +0000";
layers = (
{
backgroundImage = {
crop = "{{0, 0}, {742, 1000}}";
imagePath = "../../../../fontDesign/Calligraphy/Calligraphy in Glyphs/img/img/tet-hb.jpg";
locked = "1";
transform = "{1, 0, 0, 1, -40, -240}";
};
layerId = "4B1D62E6-7BFF-465E-AFDB-BC9AB18DC79E";
paths = (
{
closed = 1;
nodes = (
"120 379 OFFCURVE",
"111 392 OFFCURVE",
"127 274 CURVE SMOOTH",
"151 98 LINE SMOOTH",
"164 7 OFFCURVE",
"192 -15 OFFCURVE",
"235 -15 CURVE SMOOTH",
"342 -15 OFFCURVE",
"455 39 OFFCURVE",
"531 169 CURVE",
"571 242 LINE",
"469 153 OFFCURVE",
"374 89 OFFCURVE",
"270 89 CURVE SMOOTH",
"231 89 OFFCURVE",
"216 105 OFFCURVE",
"211 158 CURVE SMOOTH",
"193 340 LINE SMOOTH",
"181 459 OFFCURVE",
"174 477 OFFCURVE",
"115 552 CURVE",
"62 461 LINE"
);
},
{
closed = 1;
nodes = (
"343 393 OFFCURVE",
"385 416 OFFCURVE",
"423 416 CURVE SMOOTH",
"478 416 OFFCURVE",
"523 373 OFFCURVE",
"523 264 CURVE SMOOTH",
"523 230 OFFCURVE",
"515 192 OFFCURVE",
"497 153 CURVE",
"571 242 LINE",
"585 277 OFFCURVE",
"591 311 OFFCURVE",
"591 342 CURVE SMOOTH",
"591 461 OFFCURVE",
"531 514 OFFCURVE",
"460 514 CURVE SMOOTH",
"424 514 OFFCURVE",
"385 500 OFFCURVE",
"350 462 CURVE",
"295 339 LINE"
);
}
);
width = 660;
}
);
unicode = 05D8;
},
{
glyphname = "yod-hb";
lastChange = "2019-10-03 20:26:52 +0000";
layers = (
{
backgroundImage = {
crop = "{{0, 0}, {327, 1000}}";
imagePath = "../../../../fontDesign/Calligraphy/Calligraphy in Glyphs/img/img/yod-hb.jpg";
locked = "1";
transform = "{1, 0, 0, 1, -30, -254}";
};
layerId = "4B1D62E6-7BFF-465E-AFDB-BC9AB18DC79E";
paths = (
{
closed = 1;
nodes = (
"121 400 LINE SMOOTH",
"142 379 OFFCURVE",
"149 361 OFFCURVE",
"149 336 CURVE SMOOTH",
"149 301 OFFCURVE",
"131 253 OFFCURVE",
"99 181 CURVE",
"189 259 LINE",
"219 310 OFFCURVE",
"242 363 OFFCURVE",
"242 402 CURVE SMOOTH",
"242 430 OFFCURVE",
"224 452 OFFCURVE",
"192 482 CURVE SMOOTH",
"117 555 LINE",
"42 475 LINE"
);
}
);
width = 287;
}
);
unicode = 05D9;
},
{
glyphname = "finalkaf-hb";
lastChange = "2019-10-03 19:28:54 +0000";
layers = (
{
backgroundImage = {
crop = "{{0, 0}, {591, 1000}}";
imagePath = "../../../../fontDesign/Calligraphy/Calligraphy in Glyphs/img/img/finalkaf-hb.jpg";
locked = "1";
transform = "{1, 0, 0, 1, 0, -234}";
};
layerId = "4B1D62E6-7BFF-465E-AFDB-BC9AB18DC79E";
paths = (
{
closed = 1;
nodes = (
"167 568 LINE",
"126 500 LINE",
"145 420 LINE",
"186 488 LINE"
);
},
{
closed = 1;
nodes = (
"462 410 LINE",
"533 499 LINE",
"126 500 LINE",
"73 410 LINE"
);
},
{
closed = 1;
nodes = (
"371 -228 LINE",
"447 -153 LINE",
"447 568 LINE",
"371 478 LINE"
);
}
);
width = 590;
}
);
unicode = 05DA;
},
{
glyphname = "kaf-hb";
lastChange = "2019-10-03 19:35:26 +0000";
layers = (
{
backgroundImage = {
crop = "{{0, 0}, {557, 1000}}";
imagePath = "../../../../fontDesign/Calligraphy/Calligraphy in Glyphs/img/img/kaf-hb.jpg";
locked = "1";
transform = "{1, 0, 0, 1, 0, -253}";
};
layerId = "4B1D62E6-7BFF-465E-AFDB-BC9AB18DC79E";
paths = (
{
closed = 1;
nodes = (
"167 568 LINE",
"126 500 LINE",
"145 420 LINE",
"186 488 LINE"
);
},
{
closed = 1;
nodes = (
"254 410 LINE SMOOTH",
"374 410 OFFCURVE",
"408 386 OFFCURVE",
"408 248 CURVE SMOOTH",
"408 179 OFFCURVE",
"408 101 OFFCURVE",
"371 14 CURVE",
"447 90 LINE",
"484 176 OFFCURVE",
"484 253 OFFCURVE",
"484 321 CURVE SMOOTH",
"484 452 OFFCURVE",
"423 500 OFFCURVE",
"302 500 CURVE SMOOTH",
"126 500 LINE",
"73 410 LINE"
);
},
{
closed = 1;
nodes = (
"395 0 LINE",
"447 90 LINE",
"107 90 LINE",
"55 0 LINE"
);
}
);
width = 555;
}
);
unicode = 05DB;
},
{
glyphname = "lamed-hb";
lastChange = "2019-10-03 20:26:44 +0000";
layers = (
{
backgroundImage = {
crop = "{{0, 0}, {600, 1000}}";
imagePath = "../../../../fontDesign/Calligraphy/Calligraphy in Glyphs/img/img/lamed-hb.jpg";
locked = "1";
transform = "{1, 0, 0, 1, 0, -235}";
};
layerId = "4B1D62E6-7BFF-465E-AFDB-BC9AB18DC79E";
paths = (
{
closed = 1;
nodes = (
"70 634 OFFCURVE",
"75 597 OFFCURVE",
"75 559 CURVE SMOOTH",
"75 463 LINE SMOOTH",
"75 425 OFFCURVE",
"99 410 OFFCURVE",
"137 410 CURVE SMOOTH",
"315 410 LINE SMOOTH",
"363 410 OFFCURVE",
"385 400 OFFCURVE",
"385 342 CURVE SMOOTH",
"385 280 OFFCURVE",
"383 238 OFFCURVE",
"366 180 CURVE",
"452 278 LINE",
"467 322 OFFCURVE",
"469 364 OFFCURVE",
"469 410 CURVE SMOOTH",
"469 470 OFFCURVE",
"438 500 OFFCURVE",
"367 500 CURVE SMOOTH",
"179 500 LINE SMOOTH",
"157 500 OFFCURVE",
"151 510 OFFCURVE",
"151 538 CURVE SMOOTH",
"151 649 LINE SMOOTH",
"151 689 OFFCURVE",
"150 724 OFFCURVE",
"119 762 CURVE",
"51 670 LINE"
);
},
{
closed = 1;
nodes = (
"215 12 OFFCURVE",
"317 58 OFFCURVE",
"411 191 CURVE",
"452 278 LINE",
"367 184 OFFCURVE",
"278 123 OFFCURVE",
"152 90 CURVE",
"115 -9 LINE"
);
}
);
width = 540;
}
);
unicode = 05DC;
},
{
glyphname = "finalmem-hb";
lastChange = "2019-10-03 19:58:46 +0000";
layers = (
{
backgroundImage = {
crop = "{{0, 0}, {633, 1000}}";
imagePath = "../../../../fontDesign/Calligraphy/Calligraphy in Glyphs/img/img/finalmem-hb.jpg";
locked = "1";
transform = "{1, 0, 0, 1, 0, -251}";
};
layerId = "4B1D62E6-7BFF-465E-AFDB-BC9AB18DC79E";
paths = (
{
closed = 1;
nodes = (
"167 568 LINE",
"126 500 LINE",
"145 420 LINE",
"186 488 LINE"
);
},
{
closed = 1;
nodes = (
"372 410 LINE SMOOTH",
"482 410 OFFCURVE",
"496 386 OFFCURVE",
"496 278 CURVE SMOOTH",
"496 195 OFFCURVE",
"496 109 OFFCURVE",
"469 15 CURVE",
"545 90 LINE",
"572 184 OFFCURVE",
"572 270 OFFCURVE",
"572 353 CURVE SMOOTH",
"572 454 OFFCURVE",
"531 500 OFFCURVE",
"420 500 CURVE SMOOTH",
"126 500 LINE",
"73 410 LINE"
);
},
{
closed = 1;
nodes = (
"115 74 LINE SMOOTH",
"115 18 OFFCURVE",
"139 0 OFFCURVE",
"187 0 CURVE SMOOTH",
"493 0 LINE",
"545 90 LINE",
"229 90 LINE SMOOTH",
"197 90 OFFCURVE",
"191 103 OFFCURVE",
"191 149 CURVE SMOOTH",
"191 500 LINE",
"115 410 LINE"
);
}
);
width = 634;
}
);
unicode = 05DD;
},
{
glyphname = "mem-hb";
lastChange = "2019-10-03 20:27:39 +0000";
layers = (
{
backgroundImage = {
crop = "{{0, 0}, {756, 1000}}";
imagePath = "../../../../fontDesign/Calligraphy/Calligraphy in Glyphs/img/img/mem-hb.jpg";
locked = "1";
transform = "{1, 0, 0, 1, -40, -230}";
};
layerId = "4B1D62E6-7BFF-465E-AFDB-BC9AB18DC79E";
paths = (
{
closed = 1;
nodes = (
"125 394 OFFCURVE",
"148 354 OFFCURVE",
"148 296 CURVE SMOOTH",
"148 267 OFFCURVE",
"142 246 OFFCURVE",
"134 212 CURVE SMOOTH",
"78 -18 LINE",
"163 60 LINE",
"216 262 LINE SMOOTH",
"223 290 OFFCURVE",
"228 321 OFFCURVE",
"228 351 CURVE SMOOTH",
"228 419 OFFCURVE",
"209 453 OFFCURVE",
"131 548 CURVE",
"61 470 LINE"
);
},
{
closed = 1;
nodes = (
"234 337 OFFCURVE",
"242 386 OFFCURVE",
"307 459 CURVE",
"220 385 LINE",
"193 308 OFFCURVE",
"178 233 OFFCURVE",
"162 160 CURVE",
"216 262 LINE"
);
},
{
closed = 1;
nodes = (
"247 406 OFFCURVE",
"300 445 OFFCURVE",
"353 445 CURVE SMOOTH",
"427 445 OFFCURVE",
"494 358 OFFCURVE",
"494 201 CURVE SMOOTH",
"494 124 OFFCURVE",
"480 68 OFFCURVE",
"450 1 CURVE",
"524 90 LINE",
"555 156 OFFCURVE",
"566 229 OFFCURVE",
"566 298 CURVE SMOOTH",
"566 444 OFFCURVE",
"488 526 OFFCURVE",
"414 526 CURVE SMOOTH",
"336 526 OFFCURVE",
"280 478 OFFCURVE",
"220 385 CURVE",
"189 299 LINE"
);
},
{
closed = 1;
nodes = (
"472 0 LINE",
"524 90 LINE",
"316 90 LINE",
"264 0 LINE"
);
}
);
width = 630;
}
);
unicode = 05DE;
},
{
glyphname = "finalnun-hb";
lastChange = "2019-10-03 20:26:36 +0000";
layers = (
{
backgroundImage = {
crop = "{{0, 0}, {332, 1000}}";
imagePath = "../../../../fontDesign/Calligraphy/Calligraphy in Glyphs/img/img/finalnun-hb.jpg";
locked = "1";
transform = "{1, 0, 0, 1, -12, -265}";
};
layerId = "4B1D62E6-7BFF-465E-AFDB-BC9AB18DC79E";
paths = (
{
closed = 1;
nodes = (
"109 397 LINE SMOOTH",
"148 361 OFFCURVE",
"161 331 OFFCURVE",
"159 228 CURVE SMOOTH",
"149 -246 LINE",
"225 -170 LINE",
"234 280 LINE SMOOTH",
"236 380 OFFCURVE",
"226 428 OFFCURVE",
"174 476 CURVE SMOOTH",
"93 552 LINE",
"40 461 LINE"
);
}
);
width = 313;
}
);
unicode = 05DF;
},
{
glyphname = "nun-hb";
lastChange = "2019-10-03 20:19:45 +0000";
layers = (
{
backgroundImage = {
crop = "{{0, 0}, {338, 1000}}";
imagePath = "../../../../fontDesign/Calligraphy/Calligraphy in Glyphs/img/img/nun-hb.jpg";
locked = "1";
transform = "{1, 0, 0, 1, 0, -263}";
};
layerId = "4B1D62E6-7BFF-465E-AFDB-BC9AB18DC79E";
paths = (
{
closed = 1;
nodes = (
"167 398 LINE SMOOTH",
"210 362 OFFCURVE",
"225 346 OFFCURVE",
"225 247 CURVE SMOOTH",
"225 189 OFFCURVE",
"234 117 OFFCURVE",
"214 19 CURVE",
"275 90 LINE",
"295 142 OFFCURVE",
"290 222 OFFCURVE",
"290 302 CURVE SMOOTH",
"290 410 OFFCURVE",
"277 442 OFFCURVE",
"227 483 CURVE SMOOTH",
"145 552 LINE",
"92 461 LINE"
);
},
{
closed = 1;
nodes = (
"223 0 LINE",
"275 90 LINE",
"97 90 LINE",
"45 0 LINE"
);
}
);
width = 340;
}
);
unicode = 05E0;
},
{
glyphname = "samekh-hb";
lastChange = "2019-10-03 20:26:30 +0000";
layers = (
{
backgroundImage = {
crop = "{{0, 0}, {645, 1000}}";
imagePath = "../../../../fontDesign/Calligraphy/Calligraphy in Glyphs/img/img/samekh-hb.jpg";
locked = "1";
transform = "{1, 0, 0, 1, -20, -244}";
};
layerId = "4B1D62E6-7BFF-465E-AFDB-BC9AB18DC79E";
paths = (
{
closed = 1;
nodes = (
"144 568 LINE",
"103 500 LINE",
"122 420 LINE",
"163 488 LINE"
);
},
{
closed = 1;
nodes = (
"419 410 LINE SMOOTH",
"467 410 OFFCURVE",
"494 403 OFFCURVE",
"494 344 CURVE SMOOTH",
"494 282 OFFCURVE",
"490 225 OFFCURVE",
"459 129 CURVE",
"551 255 LINE",
"569 291 OFFCURVE",
"578 354 OFFCURVE",
"578 413 CURVE SMOOTH",
"578 473 OFFCURVE",
"542 500 OFFCURVE",
"467 500 CURVE SMOOTH",
"103 500 LINE",
"50 410 LINE"
);
},
{
closed = 1;
nodes = (
"161 98 LINE SMOOTH",
"178 9 OFFCURVE",
"202 -15 OFFCURVE",
"245 -15 CURVE SMOOTH",
"341 -15 OFFCURVE",
"443 39 OFFCURVE",
"515 169 CURVE",
"551 255 LINE",
"460 146 OFFCURVE",
"374 89 OFFCURVE",
"280 89 CURVE SMOOTH",
"241 89 OFFCURVE",
"230 105 OFFCURVE",
"221 158 CURVE SMOOTH",
"166 478 LINE",
"100 412 LINE"
);
}
);
width = 626;
}
);
unicode = 05E1;
},
{
glyphname = "ayin-hb";
lastChange = "2019-10-03 20:26:27 +0000";
layers = (
{
backgroundImage = {
crop = "{{0, 0}, {648, 1000}}";
imagePath = "../../../../fontDesign/Calligraphy/Calligraphy in Glyphs/img/img/ayin-hb.jpg";
locked = "1";
transform = "{1, 0, 0, 1, -20, -250}";
};
layerId = "4B1D62E6-7BFF-465E-AFDB-BC9AB18DC79E";
paths = (
{
closed = 1;
nodes = (
"421 360 OFFCURVE",
"427 242 OFFCURVE",
"380 124 CURVE",
"463 239 LINE",
"508 343 OFFCURVE",
"498 450 OFFCURVE",
"462 527 CURVE",
"386 444 LINE"
);
},
{
closed = 1;
nodes = (
"185 -46 OFFCURVE",
"308 5 OFFCURVE",
"422 162 CURVE",
"463 239 LINE",
"361 144 OFFCURVE",
"253 67 OFFCURVE",
"102 30 CURVE",
"65 -69 LINE"
);
},
{
closed = 1;
nodes = (
"154 317 OFFCURVE",
"200 190 OFFCURVE",
"209 33 CURVE",
"265 128 LINE",
"261 258 OFFCURVE",
"224 394 OFFCURVE",
"140 523 CURVE",
"76 423 LINE"
);
}
);
width = 560;
}
);
unicode = 05E2;
},
{
glyphname = "finalpe-hb";
lastChange = "2019-10-03 20:27:47 +0000";
layers = (
{
backgroundImage = {
crop = "{{0, 0}, {628, 1000}}";
imagePath = "../../../../fontDesign/Calligraphy/Calligraphy in Glyphs/img/img/finalpe-hb.jpg";
locked = "1";
transform = "{1, 0, 0, 1, -40, -233}";
};
layerId = "4B1D62E6-7BFF-465E-AFDB-BC9AB18DC79E";
paths = (
{
closed = 1;
nodes = (
"267 394 LINE SMOOTH",
"363 363 OFFCURVE",
"384 332 OFFCURVE",
"384 198 CURVE SMOOTH",
"384 69 OFFCURVE",
"384 -40 OFFCURVE",
"372 -188 CURVE",
"448 -112 LINE",
"460 36 OFFCURVE",
"460 144 OFFCURVE",
"460 273 CURVE SMOOTH",
"460 399 OFFCURVE",
"413 452 OFFCURVE",
"315 484 CURVE SMOOTH",
"176 530 LINE",
"123 440 LINE"
);
},
{
closed = 1;
nodes = (
"38 261 OFFCURVE",
"59 201 OFFCURVE",
"198 155 CURVE",
"246 246 LINE",
"114 297 OFFCURVE",
"99 342 OFFCURVE",
"200 515 CURVE",
"123 440 LINE"
);
}
);
width = 545;
}
);
unicode = 05E3;
},
{
glyphname = "pe-hb";
lastChange = "2019-10-03 20:27:51 +0000";
layers = (
{
backgroundImage = {
crop = "{{0, 0}, {701, 1000}}";
imagePath = "../../../../fontDesign/Calligraphy/Calligraphy in Glyphs/img/img/pe-hb.jpg";
locked = "1";
transform = "{1, 0, 0, 1, -70, -230}";
};
layerId = "4B1D62E6-7BFF-465E-AFDB-BC9AB18DC79E";
paths = (
{
closed = 1;
nodes = (
"294 406 LINE SMOOTH",
"367 375 OFFCURVE",
"394 342 OFFCURVE",
"394 238 CURVE SMOOTH",
"394 138 OFFCURVE",
"394 92 OFFCURVE",
"375 14 CURVE",
"451 90 LINE",
"470 167 OFFCURVE",
"470 213 OFFCURVE",
"470 313 CURVE SMOOTH",
"470 409 OFFCURVE",
"417 462 OFFCURVE",
"341 496 CURVE SMOOTH",
"194 561 LINE",
"141 471 LINE"
);
},
{
closed = 1;
nodes = (
"38 292 OFFCURVE",
"59 232 OFFCURVE",
"198 186 CURVE",
"246 277 LINE",
"114 328 OFFCURVE",
"99 362 OFFCURVE",
"218 546 CURVE",
"141 471 LINE"
);
},
{
closed = 1;
nodes = (
"399 0 LINE",
"451 90 LINE",
"87 90 LINE",
"35 0 LINE"
);
}
);
width = 550;
}
);
unicode = 05E4;
},
{
glyphname = "finaltsadi-hb";
lastChange = "2019-10-03 20:32:57 +0000";
layers = (
{
backgroundImage = {
crop = "{{0, 0}, {566, 1000}}";
imagePath = "../../../../fontDesign/Calligraphy/Calligraphy in Glyphs/img/img/finaltsadi-hb.jpg";
locked = "1";
transform = "{1, 0, 0, 1, 0, -242}";
};
layerId = "4B1D62E6-7BFF-465E-AFDB-BC9AB18DC79E";
paths = (
{
closed = 1;
nodes = (
"400 398 OFFCURVE",
"394 298 OFFCURVE",
"309 164 CURVE",
"418 270 LINE",
"487 389 OFFCURVE",
"485 475 OFFCURVE",
"436 544 CURVE",
"351 469 LINE"
);
},
{
closed = 1;
nodes = (
"78 374 OFFCURVE",
"168 281 OFFCURVE",
"229 201 CURVE SMOOTH",
"296 114 OFFCURVE",
"356 5 OFFCURVE",
"395 -237 CURVE",
"474 -136 LINE",
"431 106 OFFCURVE",
"343 216 OFFCURVE",
"284 295 CURVE SMOOTH",
"231 366 OFFCURVE",
"149 447 OFFCURVE",
"127 540 CURVE",
"64 443 LINE"
);
}
);
width = 565;
}
);
unicode = 05E5;
},
{
glyphname = "tsadi-hb";
lastChange = "2019-10-03 20:30:59 +0000";
layers = (
{
backgroundImage = {
crop = "{{0, 0}, {625, 1000}}";
imagePath = "../../../../fontDesign/Calligraphy/Calligraphy in Glyphs/img/img/tsadi-hb.jpg";
locked = "1";
transform = "{1, 0, 0, 1, -50, -240}";
};
layerId = "4B1D62E6-7BFF-465E-AFDB-BC9AB18DC79E";
paths = (
{
closed = 1;
nodes = (
"370 398 OFFCURVE",
"363 318 OFFCURVE",
"319 224 CURVE",
"398 303 LINE",
"457 392 OFFCURVE",
"455 475 OFFCURVE",
"406 544 CURVE",
"321 469 LINE"
);
},
{
closed = 1;
nodes = (
"113 352 OFFCURVE",
"197 288 OFFCURVE",
"269 227 CURVE SMOOTH",
"338 168 OFFCURVE",
"398 111 OFFCURVE",
"402 39 CURVE",
"451 124 LINE",
"444 189 OFFCURVE",
"406 240 OFFCURVE",
"337 294 CURVE SMOOTH",
"257 357 OFFCURVE",
"179 424 OFFCURVE",
"127 540 CURVE",
"69 440 LINE"
);
},
{
closed = 1;
nodes = (
"379 0 LINE",
"431 90 LINE",
"107 90 LINE",
"55 0 LINE"
);
}
);
width = 508;
}
);
unicode = 05E6;
},
{
glyphname = "qof-hb";
lastChange = "2019-10-03 20:35:29 +0000";
layers = (
{
backgroundImage = {
crop = "{{0, 0}, {657, 1000}}";
imagePath = "../../../../fontDesign/Calligraphy/Calligraphy in Glyphs/img/img/qof-hb.jpg";
locked = "1";
transform = "{1, 0, 0, 1, 0, -234}";
};
layerId = "4B1D62E6-7BFF-465E-AFDB-BC9AB18DC79E";
paths = (
{
closed = 1;
nodes = (
"465 410 LINE",
"513 410 OFFCURVE",
"535 400 OFFCURVE",
"535 342 CURVE SMOOTH",
"535 276 OFFCURVE",
"533 221 OFFCURVE",
"506 156 CURVE",
"602 278 LINE",
"617 322 OFFCURVE",
"619 364 OFFCURVE",
"619 410 CURVE SMOOTH",
"619 470 OFFCURVE",
"588 500 OFFCURVE",
"517 500 CURVE",
"163 500 LINE",
"110 410 LINE"
);
},
{
closed = 1;
nodes = (
"391 12 OFFCURVE",
"480 58 OFFCURVE",
"561 191 CURVE",
"602 278 LINE",
"528 184 OFFCURVE",
"451 123 OFFCURVE",
"352 90 CURVE",
"315 -9 LINE"
);
},
{
closed = 1;
nodes = (
"204 568 LINE",
"163 500 LINE",
"182 420 LINE",
"223 488 LINE"
);
},
{
closed = 1;
nodes = (
"192 181 OFFCURVE",
"182 -56 OFFCURVE",
"177 -238 CURVE",
"253 -163 LINE",
"255 47 OFFCURVE",
"264 240 OFFCURVE",
"220 502 CURVE",
"158 410 LINE"
);
}
);
width = 660;
}
);
unicode = 05E7;
},
{
glyphname = "resh-hb";
lastChange = "2019-10-03 19:45:13 +0000";
layers = (
{
backgroundImage = {
crop = "{{0, 0}, {495, 1000}}";
imagePath = "../../../../fontDesign/Calligraphy/Calligraphy in Glyphs/img/img/resh-hb.jpg";
locked = "1";
transform = "{1, 0, 0, 1, 0, -267}";
};
layerId = "4B1D62E6-7BFF-465E-AFDB-BC9AB18DC79E";
paths = (
{
closed = 1;
nodes = (
"137 568 LINE",
"96 500 LINE",
"115 420 LINE",
"156 488 LINE"
);
},
{
closed = 1;
nodes = (
"271 410 LINE SMOOTH",
"354 410 OFFCURVE",
"365 390 OFFCURVE",
"365 298 CURVE SMOOTH",
"365 -38 LINE",
"441 38 LINE",
"441 373 LINE SMOOTH",
"441 460 OFFCURVE",
"408 500 OFFCURVE",
"319 500 CURVE SMOOTH",
"96 500 LINE",
"43 410 LINE"
);
}
);
width = 510;
}
);
unicode = 05E8;
},
{
glyphname = "shin-hb";
lastChange = "2019-10-03 20:38:19 +0000";
layers = (
{
backgroundImage = {
crop = "{{0, 0}, {744, 1000}}";
imagePath = "../../../../fontDesign/Calligraphy/Calligraphy in Glyphs/img/img/shin-hb.jpg";
locked = "1";
transform = "{1, 0, 0, 1, 0, -232}";
};
layerId = "4B1D62E6-7BFF-465E-AFDB-BC9AB18DC79E";
paths = (
{
closed = 1;
nodes = (
"130 379 OFFCURVE",
"121 392 OFFCURVE",
"137 274 CURVE SMOOTH",
"161 98 LINE SMOOTH",
"173 7 OFFCURVE",
"202 -15 OFFCURVE",
"245 -15 CURVE SMOOTH",
"352 -15 OFFCURVE",
"465 39 OFFCURVE",
"541 169 CURVE",
"581 242 LINE",
"479 143 OFFCURVE",
"384 89 OFFCURVE",
"280 89 CURVE SMOOTH",
"248 89 OFFCURVE",
"226 105 OFFCURVE",
"221 158 CURVE SMOOTH",
"203 340 LINE SMOOTH",
"191 459 OFFCURVE",
"184 477 OFFCURVE",
"125 552 CURVE",
"72 461 LINE"
);
},
{
closed = 1;
nodes = (
"551 360 OFFCURVE",
"557 242 OFFCURVE",
"510 124 CURVE",
"593 239 LINE",
"638 343 OFFCURVE",
"628 450 OFFCURVE",
"608 543 CURVE",
"532 460 LINE"
);
},
{
closed = 1;
nodes = (
"340 390 OFFCURVE",
"353 307 OFFCURVE",
"308 227 CURVE",
"388 310 LINE",
"438 392 OFFCURVE",
"425 468 OFFCURVE",
"386 544 CURVE",
"301 469 LINE"
);
},
{
closed = 1;
nodes = (
"250 221 LINE",
"184 133 LINE",
"308 227 LINE",
"401 334 LINE"
);
}
);
width = 745;
}
);
unicode = 05E9;
},
{
glyphname = "tav-hb";
lastChange = "2019-10-03 20:40:40 +0000";
layers = (
{
backgroundImage = {
crop = "{{0, 0}, {688, 1000}}";
imagePath = "../../../../fontDesign/Calligraphy/Calligraphy in Glyphs/img/img/tav-hb.jpg";
locked = "1";
transform = "{1, 0, 0, 1, 0, -258}";
};
layerId = "4B1D62E6-7BFF-465E-AFDB-BC9AB18DC79E";
paths = (
{
closed = 1;
nodes = (
"217 568 LINE",
"176 500 LINE",
"199 420 LINE",
"240 488 LINE"
);
},
{
closed = 1;
nodes = (
"421 410 LINE SMOOTH",
"504 410 OFFCURVE",
"515 390 OFFCURVE",
"515 298 CURVE SMOOTH",
"515 -38 LINE",
"591 38 LINE",
"591 373 LINE SMOOTH",
"591 460 OFFCURVE",
"558 500 OFFCURVE",
"469 500 CURVE SMOOTH",
"176 500 LINE",
"123 410 LINE"
);
},
{
closed = 1;
nodes = (
"201 336 OFFCURVE",
"223 183 OFFCURVE",
"219 20 CURVE",
"271 90 LINE",
"289 192 OFFCURVE",
"278 378 OFFCURVE",
"239 499 CURVE",
"173 417 LINE"
);
},
{
closed = 1;
nodes = (
"219 0 LINE",
"271 90 LINE",
"107 90 LINE",
"55 0 LINE"
);
}
